<svg xmlns="http://www.w3.org/2000/svg" viewBox="0 0 64 64" fill="none" role="img" aria-label="BK Picker">
  <defs>
    <linearGradient id="bk-arc" x1="8" y1="12" x2="56" y2="52" gradientUnits="userSpaceOnUse">
      <stop stop-color="#7EB0FF"/>
      <stop offset="0.45" stop-color="#5EEAD4"/>
      <stop offset="1" stop-color="#F472B6"/>
    </linearGradient>
    <linearGradient id="bk-core" x1="24" y1="20" x2="44" y2="44" gradientUnits="userSpaceOnUse">
      <stop stop-color="#E8EEF6"/>
      <stop offset="1" stop-color="#9DB4D4"/>
    </linearGradient>
  </defs>
  <rect width="64" height="64" rx="16" fill="#12161D"/>
  <rect x="1" y="1" width="62" height="62" rx="15" stroke="url(#bk-arc)" stroke-opacity="0.55" stroke-width="1.5"/>
  <path d="M32 14c-7.2 0-13 5.7-13 12.8 0 8.4 9.4 17.3 12.1 19.6a1.4 1.4 0 0 0 1.8 0C35.6 44.1 45 35.2 45 26.8 45 19.7 39.2 14 32 14Z" fill="url(#bk-arc)"/>
  <circle cx="32" cy="27" r="6.5" fill="#0A0C10"/>
  <circle cx="32" cy="27" r="3.6" fill="url(#bk-core)"/>
  <path d="M41.2 39.5 46 44.3a2.2 2.2 0 0 1-3.1 3.1l-4.8-4.8" stroke="#E8EEF6" stroke-width="2.2" stroke-linecap="round"/>
</svg>
